<svg width="22" height="22" fill="none" xmlns="http://www.w3.org/2000/svg"><path d="M11 0C4.935 0 0 4.935 0 11s4.935 11 11 11 11-4.935 11-11S17.065 0 11 0zm0 21.267C5.339 21.267.733 16.66.733 11S5.34.733 11 .733 21.267 5.34 21.267 11 16.66 21.267 11 21.267z" fill="#fff"/><path d="M11.367 9.541V5.822a.367.367 0 10-.734 0v3.72a1.465 1.465 0 00-1.048 1.047H6.967a.367.367 0 100 .733h2.618c.164.631.734 1.1 1.415 1.1.809 0 1.467-.657 1.467-1.466 0-.682-.47-1.25-1.1-1.415zM11 11.69a.734.734 0 11.002-1.468A.734.734 0 0111 11.69zm0-8.07a.367.367 0 00.367-.367v-.366a.367.367 0 10-.734 0v.366c0 .203.165.367.367.367zm0 14.67a.366.366 0 00-.367.366v.366a.367.367 0 10.734 0v-.366a.366.366 0 00-.367-.367zm8.067-7.7H18.7a.366.366 0 100 .731h.367a.366.366 0 100-.732zm-15.767 0h-.367a.366.366 0 100 .731H3.3a.366.366 0 100-.732zm13.145-5.598l-.26.26a.366.366 0 10.519.517l.26-.259a.366.366 0 10-.52-.518zM5.296 16.141l-.26.26a.366.366 0 10.52.517l.259-.259a.366.366 0 10-.519-.518zm11.408-.001a.366.366 0 10-.519.52l.26.258a.366.366 0 10.518-.518l-.26-.26zM5.555 4.992a.366.366 0 10-.518.518l.26.26a.366.366 0 10.518-.519l-.26-.259z" fill="#fff"/></svg>