<svg width="17" height="17" fill="none" xmlns="http://www.w3.org/2000/svg"><path d="M8.5 17a8.445 8.445 0 01-6.01-2.49A8.444 8.444 0 010 8.5c0-2.27.884-4.405 2.49-6.01A8.444 8.444 0 018.5 0c2.27 0 4.405.884 6.01 2.49A8.445 8.445 0 0117 8.5c0 2.27-.884 4.405-2.49 6.01A8.444 8.444 0 018.5 17zm0-15.672A7.18 7.18 0 001.328 8.5c0 3.954 3.217 7.172 7.172 7.172 3.954 0 7.172-3.218 7.172-7.172 0-3.955-3.218-7.172-7.172-7.172zm3.498 10.67l-.939-.939a3.623 3.623 0 01-5.118 0 3.623 3.623 0 010-5.118 3.623 3.623 0 015.118 0L12 5a4.953 4.953 0 00-6.997 0 4.953 4.953 0 000 6.997A4.932 4.932 0 008.5 13.445a4.932 4.932 0 003.498-1.447z" fill="#fff"/></svg>