<svg width="25" height="35" fill="none" xmlns="http://www.w3.org/2000/svg"><path d="M23.921 8.711c-.126-.467-.383-.964-.574-1.4C21.072 1.93 16.1 0 12.084 0 6.71 0 .79 3.547 0 10.857v1.494c0 .062.022.622.053.902.443 3.485 3.236 7.187 5.323 10.671C7.62 27.657 9.949 31.33 12.256 35c1.424-2.395 2.841-4.822 4.232-7.155.379-.685.819-1.37 1.198-2.023.253-.435.736-.87.957-1.275 2.244-4.045 5.857-8.12 5.857-12.134v-1.648c0-.436-.548-1.96-.579-2.054zM12.183 16.21c-1.58 0-3.31-.777-4.163-2.924-.127-.342-.117-1.027-.117-1.09v-.964c0-2.737 2.362-3.982 4.416-3.982a4.44 4.44 0 014.486 4.48c0 2.49-2.093 4.48-4.622 4.48z" fill="#FF5842"/></svg>