<svg width="23" height="32" fill="none" xmlns="http://www.w3.org/2000/svg"><path d="M11.304 6.937c-2.214 0-4.016 1.815-4.016 4.046 0 2.23 1.802 4.047 4.016 4.047 2.213 0 4.015-1.816 4.015-4.047 0-2.23-1.802-4.046-4.015-4.046zm0 6.936c-1.582 0-2.869-1.296-2.869-2.89s1.287-2.89 2.869-2.89c1.581 0 2.868 1.296 2.868 2.89s-1.287 2.89-2.868 2.89z" fill="#fff"/><path d="M18.98 3.247A10.887 10.887 0 0011.203 0c-2.939 0-5.7 1.153-7.779 3.247C-.422 7.121-.9 14.411 2.39 18.827l8.813 12.826 8.8-12.808c3.302-4.434 2.824-11.724-1.021-15.598zm.092 14.922l-7.87 11.453-7.882-11.47C.337 14.143.765 7.56 4.235 4.063a9.75 9.75 0 016.967-2.908 9.753 9.753 0 016.968 2.908c3.47 3.497 3.898 10.08.902 14.105z" fill="#fff"/></svg>