<svg width="213" height="49" fill="none" xmlns="http://www.w3.org/2000/svg"><rect x=".5" y="1.5" width="44" height="44" rx="8.5" fill="#F5F4F5" stroke="#79797D"/><path d="M20.077 25.846h-5.064L13.876 29h-1.644l4.616-12.086h1.394L22.866 29H21.23l-1.153-3.154zm-4.582-1.312h4.109l-2.06-5.653-2.05 5.653zM25.92 29h-1.535V16.25h1.535V29zm4.55-11.156v2.175h1.676v1.187h-1.677v5.57c0 .36.075.63.224.813.15.177.404.266.764.266.177 0 .42-.034.73-.1V29c-.403.11-.796.166-1.178.166-.686 0-1.204-.207-1.553-.622-.348-.416-.522-1.005-.522-1.769v-5.57h-1.636V20.02h1.636v-2.175h1.535zm36.049 22.239c0 1.565-.347 2.808-1.04 3.73-.692.915-1.62 1.372-2.783 1.372-1.373 0-2.424-.482-3.154-1.447v5.121h-1.104V34.962h1.03l.055 1.42c.724-1.07 1.772-1.606 3.145-1.606 1.2 0 2.14.455 2.82 1.364.687.91 1.03 2.171 1.03 3.785v.158zm-1.114-.195c0-1.28-.263-2.291-.788-3.033-.526-.743-1.259-1.114-2.199-1.114-.68 0-1.265.164-1.753.492-.49.328-.863.804-1.123 1.429v4.815c.266.575.646 1.014 1.141 1.317.495.303 1.08.455 1.754.455.933 0 1.66-.372 2.18-1.114.525-.748.788-1.83.788-3.247zm7.469 5.297c-.854 0-1.627-.21-2.32-.63A4.318 4.318 0 0168.95 42.8c-.383-.754-.575-1.599-.575-2.532v-.4c0-.964.186-1.833.557-2.606.377-.773.9-1.38 1.568-1.819a3.838 3.838 0 012.17-.668c1.219 0 2.184.418 2.895 1.253.717.829 1.076 1.963 1.076 3.405v.621h-7.162v.214c0 1.138.325 2.087.974 2.848.656.754 1.478 1.132 2.468 1.132.594 0 1.116-.109 1.568-.325.457-.217.872-.563 1.243-1.04l.696.53c-.817 1.18-2.001 1.771-3.553 1.771zm-.205-9.462a2.79 2.79 0 00-2.115.918c-.569.612-.915 1.435-1.039 2.468h6.021v-.12c-.03-.966-.306-1.751-.826-2.357-.52-.606-1.2-.91-2.04-.91zm11.69 7.774l3.99-8.535h1.372V45h-1.113v-8.238L84.748 45h-.788l-3.934-8.424V45h-1.104V34.962h1.457l3.98 8.535zm7.728-3.664c0-.965.185-1.834.557-2.607.377-.773.906-1.373 1.586-1.8.686-.433 1.463-.65 2.329-.65 1.335 0 2.418.47 3.247 1.41.828.934 1.243 2.175 1.243 3.72v.233c0 .97-.189 1.846-.566 2.625-.371.773-.897 1.37-1.577 1.79-.68.421-1.457.631-2.329.631-1.33 0-2.412-.466-3.247-1.4-.829-.94-1.243-2.184-1.243-3.73v-.222zm1.113.306c0 1.2.31 2.186.928 2.96.625.766 1.441 1.15 2.45 1.15 1.001 0 1.811-.384 2.43-1.15.624-.774.937-1.791.937-3.053v-.213c0-.767-.142-1.47-.427-2.106-.284-.637-.683-1.13-1.197-1.475a3.038 3.038 0 00-1.762-.53c-.99 0-1.797.39-2.422 1.17-.624.773-.937 1.787-.937 3.043v.204zM111.06 45h-1.113v-4.602h-5.409V45h-1.113V34.962h1.113v4.5h5.409v-4.5h1.113V45zm10.187-9.092h-3.656V45h-1.113v-9.092h-3.516v-.946h8.285v.946zM130.783 45h-1.114v-4.602h-5.408V45h-1.114V34.962h1.114v4.5h5.408v-4.5h1.114V45zm4.202-6.392h2.895c.742 0 1.391.136 1.948.408.563.266.987.637 1.271 1.113.291.477.436 1.03.436 1.661 0 .971-.334 1.75-1.002 2.338-.662.581-1.558.872-2.69.872h-3.962V34.962h1.104v3.646zm0 .946v4.509h2.876c.798 0 1.423-.201 1.874-.603.458-.402.687-.953.687-1.651 0-.668-.223-1.206-.668-1.615-.439-.414-1.042-.627-1.809-.64h-2.96zM144.94 45h-1.113V34.962h1.113V45zm9.685-10.038h1.114V45h-1.114v-8.248L149.208 45h-1.104V34.962h1.104v8.257l5.417-8.257zm-.055-3.618c0 .711-.244 1.286-.733 1.725-.483.44-1.132.659-1.948.659-.804 0-1.454-.216-1.949-.65-.488-.439-.732-1.017-.732-1.734h.946c0 .513.151.906.454 1.178.31.272.736.408 1.281.408.544 0 .968-.142 1.271-.427.309-.284.464-.67.464-1.16h.946zm8.841 3.618h1.113v9.101h5.409v-9.101h1.113v9.101h1.021l-.084 3.915h-1.02V45h-7.552V34.962zm14.631 10.223c-.854 0-1.627-.21-2.32-.63a4.324 4.324 0 01-1.605-1.754c-.383-.754-.575-1.599-.575-2.532v-.4c0-.964.186-1.833.557-2.606.377-.773.9-1.38 1.568-1.819a3.833 3.833 0 012.17-.668c1.219 0 2.184.418 2.895 1.253.717.829 1.076 1.963 1.076 3.405v.621h-7.162v.214c0 1.138.325 2.087.974 2.848.656.754 1.478 1.132 2.468 1.132.594 0 1.116-.109 1.568-.325.457-.217.872-.563 1.243-1.04l.696.53c-.817 1.18-2.001 1.771-3.553 1.771zm-.205-9.462a2.79 2.79 0 00-2.115.918c-.569.612-.915 1.435-1.039 2.468h6.021v-.12c-.031-.966-.306-1.751-.826-2.357-.519-.606-1.199-.91-2.041-.91zM191.679 45h-1.113v-4.602h-5.409V45h-1.113V34.962h1.113v4.5h5.409v-4.5h1.113V45zm10.187-9.092h-3.656V45h-1.113v-9.092h-3.516v-.946h8.285v.946zm9.899 4.175c0 1.565-.347 2.808-1.039 3.73-.693.915-1.621 1.372-2.784 1.372-1.373 0-2.424-.482-3.154-1.447v5.121h-1.104V34.962h1.03l.056 1.42c.723-1.07 1.772-1.606 3.145-1.606 1.199 0 2.14.455 2.82 1.364.686.91 1.03 2.171 1.03 3.785v.158zm-1.114-.195c0-1.28-.262-2.291-.788-3.033-.526-.743-1.259-1.114-2.199-1.114-.68 0-1.265.164-1.753.492-.489.328-.863.804-1.123 1.429v4.815c.266.575.646 1.014 1.141 1.317.495.303 1.079.455 1.754.455.934 0 1.66-.372 2.18-1.114.526-.748.788-1.83.788-3.247zM63.76 12.493c-2.412-.693-4.17-1.543-5.274-2.549-1.093-1.015-1.64-2.265-1.64-3.75 0-1.68.669-3.066 2.007-4.16C60.2.931 61.947.38 64.096.38c1.465 0 2.768.283 3.91.85 1.153.566 2.042 1.347 2.667 2.343a5.96 5.96 0 01.952 3.267h-2.827c0-1.29-.41-2.3-1.23-3.032-.821-.743-1.978-1.114-3.472-1.114-1.387 0-2.471.308-3.252.923-.772.606-1.157 1.45-1.157 2.534 0 .87.366 1.607 1.098 2.212.742.596 1.997 1.143 3.765 1.64 1.777.499 3.164 1.05 4.16 1.656 1.006.596 1.748 1.294 2.227 2.095.488.8.732 1.743.732 2.827 0 1.729-.674 3.115-2.022 4.16-1.347 1.035-3.149 1.553-5.405 1.553-1.465 0-2.832-.278-4.101-.835-1.27-.566-2.251-1.338-2.945-2.314-.683-.977-1.025-2.085-1.025-3.326h2.827c0 1.29.474 2.31 1.42 3.062.958.742 2.232 1.113 3.824 1.113 1.485 0 2.622-.303 3.413-.908.791-.605 1.187-1.43 1.187-2.476 0-1.045-.366-1.85-1.099-2.417-.732-.576-2.06-1.142-3.984-1.699zm17.68 9.8c-2.148 0-3.896-.703-5.244-2.11-1.347-1.415-2.021-3.305-2.021-5.668v-.498c0-1.573.298-2.974.893-4.204.606-1.24 1.446-2.208 2.52-2.9a6.338 6.338 0 013.516-1.056c2.06 0 3.662.68 4.804 2.037 1.143 1.357 1.714 3.3 1.714 5.83v1.128H76.885c.039 1.562.493 2.827 1.362 3.793.879.957 1.992 1.436 3.34 1.436.957 0 1.767-.195 2.432-.586a6.11 6.11 0 001.743-1.553l1.655 1.29c-1.328 2.04-3.32 3.061-5.977 3.061zm-.337-14.209c-1.093 0-2.011.4-2.753 1.201-.743.791-1.202 1.905-1.377 3.34h7.94v-.205c-.079-1.377-.45-2.441-1.114-3.193-.664-.762-1.563-1.143-2.696-1.143zm17.33.498a8.12 8.12 0 00-1.333-.103c-1.778 0-2.984.757-3.619 2.271V22h-2.71V6.15h2.637l.044 1.831c.889-1.416 2.149-2.124 3.78-2.124.527 0 .927.069 1.2.205v2.52zm7.998 9.741l3.925-12.173h2.769L107.441 22h-2.065L99.634 6.15h2.768l4.029 12.173zM118.677 22h-2.71V6.15h2.71V22zm-2.93-20.054c0-.44.132-.81.396-1.113.273-.303.673-.454 1.201-.454.527 0 .927.151 1.201.454.273.303.41.674.41 1.113 0 .44-.137.806-.41 1.099-.274.293-.674.44-1.201.44-.528 0-.928-.147-1.201-.44-.264-.293-.396-.66-.396-1.099zm13.638 18.135c.967 0 1.811-.293 2.534-.879.723-.586 1.123-1.318 1.201-2.197h2.564c-.049.908-.362 1.772-.938 2.593-.576.82-1.348 1.474-2.314 1.963a6.614 6.614 0 01-3.047.732c-2.158 0-3.877-.718-5.156-2.153-1.27-1.446-1.905-3.418-1.905-5.918v-.454c0-1.543.283-2.916.85-4.117.566-1.2 1.377-2.133 2.431-2.797 1.065-.665 2.32-.997 3.765-.997 1.777 0 3.252.533 4.424 1.597 1.182 1.065 1.811 2.446 1.89 4.146h-2.564c-.078-1.026-.469-1.866-1.172-2.52-.693-.664-1.552-.996-2.578-.996-1.377 0-2.446.498-3.208 1.494-.752.987-1.128 2.417-1.128 4.292v.513c0 1.826.376 3.232 1.128 4.219.752.986 1.826 1.48 3.223 1.48zm15.923 2.212c-2.149 0-3.897-.703-5.245-2.11-1.347-1.415-2.021-3.305-2.021-5.668v-.498c0-1.573.298-2.974.894-4.204.605-1.24 1.445-2.208 2.519-2.9a6.339 6.339 0 013.516-1.056c2.06 0 3.662.68 4.804 2.037 1.143 1.357 1.714 3.3 1.714 5.83v1.128h-10.737c.039 1.562.493 2.827 1.362 3.793.879.957 1.992 1.436 3.34 1.436.957 0 1.768-.195 2.432-.586a6.11 6.11 0 001.743-1.553l1.655 1.29c-1.328 2.04-3.32 3.061-5.976 3.061zm-.337-14.209c-1.094 0-2.012.4-2.754 1.201-.742.791-1.201 1.905-1.377 3.34h7.939v-.205c-.078-1.377-.449-2.441-1.113-3.193-.664-.762-1.562-1.143-2.695-1.143z" fill="#000"/></svg>