<svg width="26" height="35" fill="none" xmlns="http://www.w3.org/2000/svg"><path d="M24.622 9.558a3.497 3.497 0 01-1.05-2.503c0-2.565-2.113-4.655-4.706-4.655a3.586 3.586 0 01-2.53-1.039 4.744 4.744 0 00-6.654 0A3.574 3.574 0 017.152 2.4c-2.593 0-4.707 2.09-4.707 4.655a3.48 3.48 0 01-1.05 2.503A4.598 4.598 0 00.02 12.852c0 1.244.487 2.413 1.377 3.293a3.497 3.497 0 011.05 2.503c0 2.111 1.424 3.892 3.371 4.463L3.085 33.205l4.122-2.269 2.42 4.009 2.523-9.317c.285.048.57.075.855.075.285 0 .57-.027.855-.075l2.53 9.31 2.42-4.009 4.123 2.27L20.2 23.103c1.947-.57 3.372-2.351 3.372-4.462 0-.943.376-1.837 1.05-2.503a4.62 4.62 0 000-6.581zM9.237 32.098L7.625 29.43l-2.746 1.513 2.071-7.646c.077.006.146.006.216.006.952 0 1.856.372 2.53 1.039.111.11.223.206.34.302l.105.083c.084.062.167.124.257.186.049.034.105.061.153.096.077.041.146.09.223.13.062.035.132.07.194.097.028.014.07.034.112.048l-1.843 6.814zm11.923-1.155l-2.746-1.513-1.613 2.668-1.842-6.814c.041-.02.076-.041.118-.055.07-.034.132-.062.201-.103.077-.042.146-.083.216-.124l.16-.096c.083-.055.16-.117.243-.18a4.646 4.646 0 00.459-.392 3.574 3.574 0 012.53-1.037c.056.006.126 0 .202 0l2.072 7.646zm2.662-15.588a4.598 4.598 0 00-1.376 3.293c0 1.706-1.224 3.129-2.85 3.466l-.181.027c-.097.014-.18.028-.271.035-.09.007-.188.014-.278.014-.473 0-.932.068-1.37.199a4.65 4.65 0 00-1.953 1.162 3.54 3.54 0 01-.3.261c-.034.028-.069.048-.104.076-.069.055-.146.103-.222.151-.035.02-.076.048-.118.07-.084.047-.167.088-.25.13a.64.64 0 00-.098.048c-.104.048-.215.09-.32.124-.02.006-.048.02-.07.027l-.04.014a3.694 3.694 0 01-2.01 0l-.055-.014c-.021-.007-.035-.014-.056-.02-.111-.035-.223-.083-.334-.124-.028-.014-.062-.028-.09-.041a3.054 3.054 0 01-.257-.138l-.105-.062a2.77 2.77 0 01-.236-.158c-.028-.02-.063-.041-.09-.069-.105-.082-.202-.172-.3-.261a4.694 4.694 0 00-3.322-1.362c-.098 0-.188-.006-.278-.013-.084-.007-.174-.021-.272-.035l-.18-.027c-1.627-.337-2.85-1.76-2.85-3.466a4.598 4.598 0 00-1.377-3.294 3.508 3.508 0 010-5.006A4.598 4.598 0 003.585 7.07c0-1.953 1.606-3.535 3.574-3.535a4.7 4.7 0 003.33-1.361 3.588 3.588 0 012.53-1.032c.918 0 1.835.344 2.53 1.032a4.7 4.7 0 003.33 1.361c1.975 0 3.574 1.589 3.574 3.535a4.6 4.6 0 001.376 3.294 3.503 3.503 0 01-.007 4.992z" fill="#000"/><path d="M13.01 4.476c-4.671 0-8.474 3.762-8.474 8.382 0 4.621 3.803 8.376 8.474 8.376 4.672 0 8.475-3.762 8.475-8.382 0-4.621-3.803-8.376-8.475-8.376zm0 15.637c-4.046 0-7.34-3.26-7.34-7.261 0-4.002 3.294-7.262 7.34-7.262 4.046 0 7.342 3.26 7.342 7.262s-3.296 7.261-7.342 7.261z" fill="#000"/><path d="M13.01 7.138l-1.258 3.837h-4.08l3.301 2.372-1.258 3.837 3.302-2.373 3.303 2.373-1.266-3.837 3.302-2.372h-4.08L13.01 7.138zm1.154 7.123l-1.154-.832-1.154.832.438-1.34-1.154-.833h1.425l.439-1.34.437 1.34h1.426l-1.154.832.451 1.341z" fill="#000"/></svg>