<svg width="25" height="25" fill="none" xmlns="http://www.w3.org/2000/svg"><path d="M23.75 1.667h-2.917V.417A.416.416 0 0020.417 0H17.5a.416.416 0 00-.417.417v1.25H7.917V.417A.416.416 0 007.5 0H4.583a.416.416 0 00-.416.417v1.25H1.25a.416.416 0 00-.417.416v22.5c0 .23.187.417.417.417h22.5c.23 0 .417-.186.417-.417v-22.5a.416.416 0 00-.417-.416zM17.917.833H20v2.5h-2.083v-2.5zM5 .833h2.083v2.5H5v-2.5zM1.667 2.5h2.5v1.25c0 .23.186.417.416.417H7.5c.23 0 .417-.187.417-.417V2.5h9.166v1.25c0 .23.187.417.417.417h2.917c.23 0 .416-.187.416-.417V2.5h2.5v3.75H1.667V2.5zm0 21.667V7.083h21.666v17.084H1.667z" fill="#000"/><path d="M15.833 9.583H4.583v12.084h15.834V9.583h-4.584zm-2.916.834h2.916v2.916h-2.916v-2.916zm2.916 6.666h-2.916v-2.916h2.916v2.916zm-6.666-2.916h2.916v2.916H9.167v-2.916zm0-3.75h2.916v2.916H9.167v-2.916zm-3.75 0h2.916v2.916H5.417v-2.916zm0 3.75h2.916v2.916H5.417v-2.916zm2.916 6.666H5.417v-2.916h2.916v2.916zm3.75 0H9.167v-2.916h2.916v2.916zm3.75 0h-2.916v-2.916h2.916v2.916zm3.75 0h-2.916v-2.916h2.916v2.916zm0-3.75h-2.916v-2.916h2.916v2.916zm0-6.666v2.916h-2.916v-2.916h2.916z" fill="#000"/></svg>