<svg width="25" height="25" fill="none" xmlns="http://www.w3.org/2000/svg"><path d="M25 12.5C25 5.608 19.392 0 12.5 0S0 5.608 0 12.5c0 3.64 1.565 6.922 4.057 9.208l-.012.01.406.343c.026.022.055.04.081.062.216.178.439.348.666.512.074.053.147.106.222.158.243.168.492.326.747.477l.167.096c.279.159.563.308.855.445l.064.03c.95.44 1.963.765 3.023.956l.084.015c.33.057.662.102.999.133l.123.01c.335.027.674.045 1.018.045.34 0 .676-.018 1.01-.044l.127-.01c.334-.03.664-.075.99-.13l.085-.016a12.389 12.389 0 002.98-.934l.104-.047a12.587 12.587 0 001.742-.995c.084-.058.166-.118.25-.178.199-.144.395-.292.585-.447.043-.034.088-.064.13-.099l.415-.347-.012-.01A12.468 12.468 0 0025 12.5zm-24.09 0C.91 6.109 6.108.91 12.5.91S24.09 6.108 24.09 12.5c0 3.444-1.51 6.54-3.903 8.665a3.403 3.403 0 00-.406-.244l-3.849-1.924a1.007 1.007 0 01-.56-.906v-1.344c.09-.11.184-.235.28-.372a9.261 9.261 0 001.19-2.328 1.65 1.65 0 00.948-1.495V10.94a1.65 1.65 0 00-.404-1.077V7.742c.024-.236.108-1.567-.855-2.665-.838-.957-2.194-1.44-4.031-1.44-1.837 0-3.193.483-4.03 1.44-.964 1.098-.88 2.429-.856 2.665v2.121c-.259.3-.404.683-.404 1.077v1.611c0 .5.225.968.61 1.283.368 1.442 1.125 2.534 1.405 2.904v1.315c0 .371-.202.712-.528.89l-3.594 1.96a3.285 3.285 0 00-.342.217A11.563 11.563 0 01.91 12.5zm18.39 9.378c-.16.116-.321.227-.486.334a11.484 11.484 0 01-.883.523c-.048.026-.098.05-.147.076-.512.263-1.042.488-1.586.671l-.058.02c-.285.094-.573.178-.865.25l-.003.001a11.63 11.63 0 01-.893.183l-.024.005c-.282.045-.567.079-.852.104l-.152.01c-.282.022-.566.036-.851.036-.288 0-.575-.014-.861-.036l-.148-.01a11.74 11.74 0 01-.86-.107l-.038-.007c-.6-.1-1.192-.248-1.768-.441l-.054-.018a11.765 11.765 0 01-.846-.324l-.006-.003c-.263-.113-.52-.239-.775-.37l-.1-.052a11.685 11.685 0 01-.88-.525c-.207-.135-.41-.276-.609-.424l-.06-.048.043-.024 3.594-1.96a1.922 1.922 0 001.002-1.689v-1.637l-.104-.127c-.01-.01-.993-1.206-1.365-2.825l-.04-.18-.156-.1a.753.753 0 01-.35-.633V10.94a.74.74 0 01.254-.556l.15-.136V7.716l-.004-.06c-.002-.01-.136-1.103.634-1.981.657-.75 1.784-1.13 3.347-1.13 1.557 0 2.68.378 3.34 1.121.768.869.642 1.983.641 1.992l-.004 2.591.15.135a.743.743 0 01.254.556v1.612a.76.76 0 01-.537.716l-.226.07-.073.224a8.41 8.41 0 01-1.135 2.288 5.57 5.57 0 01-.334.43l-.113.13v1.68c0 .734.408 1.393 1.063 1.72l3.849 1.924.072.038c-.048.037-.098.07-.148.106z" fill="#000"/></svg>