<svg width="25" height="25" fill="none" xmlns="http://www.w3.org/2000/svg"><path d="M20.093 25c-1.04 0-2.296-.26-3.678-.782-3.029-1.142-6.324-3.399-9.28-6.354C4.18 14.91 1.924 11.612.782 8.584-.258 5.83-.26 3.569.775 2.535c.148-.149.3-.308.456-.473.945-.993 2.012-2.11 3.426-2.06.975.04 1.919.645 2.886 1.849 2.857 3.553 1.569 4.82.078 6.288l-.263.26c-.244.244-.705 1.374 3.582 5.66 1.4 1.4 2.593 2.424 3.546 3.043.6.39 1.674.981 2.115.54l.265-.267c1.466-1.488 2.733-2.772 6.284.083 1.203.967 1.808 1.91 1.848 2.887.058 1.413-1.068 2.483-2.062 3.427-.164.156-.324.307-.473.455-.513.515-1.335.773-2.37.773zM4.556.84c-1.005 0-1.912.956-2.715 1.801-.162.17-.318.335-.472.489-.77.77-.693 2.794.199 5.158 1.101 2.92 3.29 6.11 6.163 8.983 2.873 2.871 6.061 5.06 8.982 6.16 2.363.894 4.387.97 5.157.2a24.7 24.7 0 01.488-.47c.864-.822 1.843-1.752 1.8-2.783-.029-.71-.545-1.472-1.534-2.266-2.959-2.38-3.786-1.54-5.159-.148l-.269.271c-.656.657-1.721.511-3.167-.429-1.004-.652-2.243-1.713-3.683-3.154-3.557-3.557-4.695-5.734-3.582-6.85l.268-.264C8.428 6.165 9.27 5.337 6.89 2.376 6.092 1.388 5.33.872 4.622.842L4.556.84z" fill="#000"/></svg>