<svg width="27" height="40" fill="none" xmlns="http://www.w3.org/2000/svg"><g clip-path="url(#clip0)"><path d="M13.31 0C5.977 0 .012 5.962.012 13.29V26.6c0 7.327 5.965 13.289 13.296 13.289 7.332 0 13.297-5.961 13.297-13.29V13.29C26.606 5.963 20.64 0 13.309 0zm11.818 26.6c0 6.513-5.302 11.812-11.819 11.812-6.517 0-11.819-5.299-11.819-11.812V13.29c0-6.513 5.302-11.813 11.82-11.813 6.516 0 11.818 5.3 11.818 11.813V26.6z" fill="url(#paint0_linear)"/><path d="M13.31 4.432a.739.739 0 00-.74.739v6.69a.739.739 0 101.478 0V5.17a.739.739 0 00-.739-.739z" fill="url(#paint1_linear)"/></g><defs><linearGradient id="paint0_linear" x1="13.309" y1="0" x2="13.309" y2="39.889" gradientUnits="userSpaceOnUse"><stop stop-color="#47C0BB"/><stop offset="1" stop-color="#0063AE"/></linearGradient><linearGradient id="paint1_linear" x1="13.309" y1="4.432" x2="13.309" y2="12.599" gradientUnits="userSpaceOnUse"><stop stop-color="#47C0BB"/><stop offset="1" stop-color="#0063AE"/></linearGradient><clipPath id="clip0"><path fill="#fff" d="M0 0h26.73v40H0z"/></clipPath></defs></svg>