<svg width="60" height="55" fill="none" xmlns="http://www.w3.org/2000/svg"><path d="M43.606 52.482H8.712a.514.514 0 01-.515-.514v-15.46c0-.102.03-.2.087-.285.115-.172 2.882-4.224 8.64-4.224 5.061 0 7.894 3.294 8.588 4.218H37.09c2.26 0 4.1 1.839 4.1 4.1 0 1.222-.537 2.32-1.387 3.072h1.362l13.323-8.331a3.603 3.603 0 014.12 5.9L43.922 52.373c-.09.07-.2.109-.316.109zm-34.38-1.029h34.203l14.549-11.308a2.574 2.574 0 00-2.945-4.215l-13.447 8.41a.511.511 0 01-.273.077H37.09a.515.515 0 010-1.028 3.075 3.075 0 003.072-3.072 3.076 3.076 0 00-3.072-3.072H25.248a.516.516 0 01-.428-.23c-.027-.04-2.704-3.987-7.895-3.987-4.662 0-7.21 3.01-7.698 3.649v14.776h-.001z" fill="url(#paint0_linear)"/><path d="M25.722 43.388H37.09v1.028H25.722v-1.028z" fill="#1F8BB4"/><path d="M8.712 54.79H.514A.514.514 0 010 54.277V32.513c0-.285.23-.515.514-.515h8.198c.283 0 .514.23.514.515v21.763c0 .285-.23.515-.514.515zm-7.683-1.028h7.168V33.027H1.03v20.735z" fill="url(#paint1_linear)"/><path d="M40.401 0H27.026A2.032 2.032 0 0025 2.026v25.947c0 1.115.912 2.027 2.026 2.027h13.375c1.114 0 2.026-.91 2.026-2.026V2.026A2.032 2.032 0 0040.401 0zm-8.827 1.46h4.28a.245.245 0 010 .492h-4.28a.245.245 0 110-.491zm2.14 27.527a1.013 1.013 0 110-2.026 1.013 1.013 0 010 2.026zm7.303-2.737H26.41V3.213h14.607V26.25z" fill="url(#paint2_linear)"/><defs><linearGradient id="paint0_linear" x1="34.099" y1="31.999" x2="34.099" y2="52.482" gradientUnits="userSpaceOnUse"><stop stop-color="#47C0BB"/><stop offset="1" stop-color="#0063AE"/></linearGradient><linearGradient id="paint1_linear" x1="4.613" y1="31.998" x2="4.613" y2="54.791" gradientUnits="userSpaceOnUse"><stop stop-color="#47C0BB"/><stop offset="1" stop-color="#0063AE"/></linearGradient><linearGradient id="paint2_linear" x1="33.714" y1="0" x2="33.714" y2="30" gradientUnits="userSpaceOnUse"><stop stop-color="#47C0BB"/><stop offset="1" stop-color="#0063AE"/></linearGradient></defs></svg>