<svg width="40" height="40" fill="none" xmlns="http://www.w3.org/2000/svg"><path d="M28.55 12.137a.644.644 0 100-1.288.644.644 0 000 1.288z" fill="url(#paint0_linear)"/><path d="M24.852 16.985c.007-.007-.007.007 0 0z" fill="url(#paint1_linear)"/><path d="M23.058 15.192c-.007.007.006-.007 0 0z" fill="url(#paint2_linear)"/><path d="M38.19 10.064h-.787a10.39 10.39 0 00-1.204-2.905l.557-.557a1.612 1.612 0 000-2.278l-1.28-1.28a1.612 1.612 0 00-2.277 0l-.557.558a10.388 10.388 0 00-2.905-1.204V1.61c0-.887-.723-1.61-1.611-1.61h-1.81c-.888 0-1.61.723-1.61 1.61v.788c-1.026.252-2 .656-2.905 1.204l-.558-.557a1.613 1.613 0 00-2.277 0l-1.28 1.28a1.612 1.612 0 000 2.277l.557.557a10.41 10.41 0 00-1.204 2.905h-.787c-.888 0-1.61.723-1.61 1.61v1.81c0 .888.722 1.61 1.61 1.61h.787c.25 1.02.652 1.99 1.196 2.892l.139.239L7.727 28.87a5.776 5.776 0 00-6.006 1.338c-1.6 1.6-2.11 4-1.298 6.114a.583.583 0 00.957.204l2.99-2.99 1.477.608.654 1.532-2.985 2.985a.583.583 0 00.203.957 5.74 5.74 0 006.114-1.298 5.776 5.776 0 001.338-6.006l1.975-1.975c.227-.228-.51.14-.738-.087-.227-.228.14-.966-.087-.738l-2.247 2.247a.583.583 0 00-.12.649 4.598 4.598 0 01-.946 5.085 4.577 4.577 0 01-3.957 1.28l2.554-2.554a.583.583 0 00.124-.641l-.903-2.114a.583.583 0 00-.315-.31l-2.057-.847a.583.583 0 00-.634.127L1.266 34.99a4.576 4.576 0 011.28-3.957 4.598 4.598 0 015.085-.945c.22.097.479.05.65-.121L23.056 15.19a.583.583 0 00.12-.649 4.598 4.598 0 01.946-5.085 4.575 4.575 0 013.957-1.28l-.002.002-2.56 2.56a.582.582 0 00-.013.013l-.002.002-.002.003-.013.014a.082.082 0 00-.002.003l-.005.006-.004.005-.003.003c0 .002-.002.003-.003.005a.094.094 0 00-.003.004l-.004.005-.003.003-.003.005-.003.004-.004.005-.003.004c0 .002-.002.003-.003.005l-.003.004c0 .002-.002.004-.003.005l-.002.004-.004.006-.002.004a.277.277 0 00-.003.005l-.003.004-.002.005-.003.004c0 .002-.002.004-.003.005l-.002.005-.003.006-.002.003-.003.006-.002.004-.002.005-.002.005-.003.006-.002.003-.002.006a.127.127 0 00-.002.005l-.002.005-.002.004-.002.006-.002.004a.233.233 0 00-.002.006l-.001.004-.003.007v.003a.21.21 0 00-.003.006l-.001.005-.002.005-.001.005-.002.005-.001.005a.06.06 0 00-.002.006v.005a.116.116 0 01-.002.006l-.001.004-.002.006v.005l-.002.006a.07.07 0 000 .004l-.002.006v.005a.11.11 0 00-.002.006v.004l-.001.006-.001.005v.006l-.001.004-.001.007v.004l-.001.007v.01l-.001.004v.011l-.001.007v.058l.001.008v.002l.001.008v.003l.001.008v.003l.002.007v.004l.001.007v.003l.002.008v.003l.002.008v.003l.002.008v.002l.002.008v.003l.002.007.001.004.002.007.001.003.002.008.001.003.002.007.001.004a.55.55 0 00.002.006l.002.004.002.007a.05.05 0 01.001.004l.003.006.001.005.002.005.002.005.003.005v.003l.855 2.05c.058.139.168.25.306.31l2.107.911c.22.095.474.046.644-.123l2.561-2.561a4.576 4.576 0 01-1.28 3.957 4.598 4.598 0 01-5.085.945.583.583 0 00-.65.12l-12.442 12.44a.583.583 0 00.825.826l8.648-8.648a10.4 10.4 0 002.825 1.156v.787c0 .888.723 1.61 1.61 1.61h1.81c.888 0 1.61-.722 1.61-1.61v-.787a10.374 10.374 0 002.906-1.204l.557.557a1.6 1.6 0 001.139.472 1.6 1.6 0 001.139-.472l1.28-1.28a1.6 1.6 0 00.471-1.138 1.6 1.6 0 00-.472-1.14L36.2 18a10.38 10.38 0 001.204-2.905h.787c.888 0 1.61-.723 1.61-1.61v-1.81c0-.888-.722-1.61-1.61-1.61zm-8.243 2.167l-1.181 1.181-1.534-.704-.61-1.424 1.467-1.467 1.643.493.493 1.643-.278.278zm8.687 1.254a.444.444 0 01-.444.444h-1.083a.8.8 0 00-.777.628 9.24 9.24 0 01-1.27 3.065.8.8 0 00.105.994l.766.766a.441.441 0 010 .628l-1.28 1.28a.445.445 0 01-.628 0l-.766-.766a.8.8 0 00-.993-.105 9.238 9.238 0 01-3.065 1.27.8.8 0 00-.629.776v1.084c0 .245-.2.444-.444.444h-1.81a.445.445 0 01-.444-.444v-1.083a.8.8 0 00-.628-.777 9.233 9.233 0 01-2.509-.938l1.108-1.107a7.848 7.848 0 003.378.765 7.84 7.84 0 007.684-6.323.583.583 0 10-1.145-.223 6.671 6.671 0 01-9.033 4.896l.677-.677a5.774 5.774 0 006.006-1.338c1.6-1.6 2.11-4 1.298-6.114a.583.583 0 00-.956-.203l-.59.59-.403-1.343a.583.583 0 00-.39-.39l-1.343-.403.59-.59a.583.583 0 00-.204-.957 5.744 5.744 0 00-6.114 1.298 5.776 5.776 0 00-1.337 6.007l-.772.772a6.657 6.657 0 01-.63-2.831 6.67 6.67 0 016.662-6.663c3.34 0 6.18 2.493 6.608 5.8a.583.583 0 101.157-.15c-.502-3.886-3.84-6.817-7.765-6.817-4.317 0-7.829 3.513-7.829 7.83 0 1.296.32 2.566.928 3.7l-1.093 1.092a9.243 9.243 0 01-1.115-2.815.8.8 0 00-.777-.628h-1.083a.445.445 0 01-.444-.444v-1.81c0-.245.2-.444.444-.444h1.084a.8.8 0 00.776-.629 9.237 9.237 0 011.27-3.065.8.8 0 00-.105-.993l-.766-.766a.445.445 0 010-.629l1.28-1.28a.445.445 0 01.628 0l.766.767a.8.8 0 00.994.105 9.236 9.236 0 013.065-1.27.8.8 0 00.628-.777V1.611c0-.245.2-.445.445-.445h1.81c.244 0 .444.2.444.445v1.083a.8.8 0 00.628.776 9.234 9.234 0 013.065 1.27.8.8 0 00.993-.104l.767-.767a.445.445 0 01.628 0l1.28 1.28a.445.445 0 010 .628l-.766.766a.8.8 0 00-.106.994 9.237 9.237 0 011.27 3.065.8.8 0 00.777.628h1.083c.245 0 .445.2.445.445v1.81z" fill="url(#paint3_linear)"/><path d="M11.906 11.55h-.327a4.812 4.812 0 00-.217-.525l.23-.23a.876.876 0 000-1.238L10.577 8.54a.869.869 0 00-.619-.256.87.87 0 00-.618.256l-.231.23a4.823 4.823 0 00-.526-.217v-.326a.876.876 0 00-.875-.875H6.27a.876.876 0 00-.875.875v.326c-.18.063-.355.135-.526.218l-.23-.23a.87.87 0 00-.619-.257.87.87 0 00-.619.256L2.383 9.557a.876.876 0 000 1.237l.231.231c-.082.17-.155.346-.217.526H2.07a.876.876 0 00-.875.875v1.438c0 .482.393.875.875.875h.327c.062.18.135.355.217.525l-.23.231a.876.876 0 000 1.238L3.4 17.75a.87.87 0 00.618.256.869.869 0 00.619-.256l.23-.231c.171.082.347.155.526.217v.327c0 .482.393.875.875.875h1.438a.876.876 0 00.875-.875v-.327c.18-.062.355-.135.526-.217l.23.23a.869.869 0 00.62.257.87.87 0 00.618-.256l1.017-1.018a.876.876 0 000-1.237l-.231-.23a4.83 4.83 0 00.217-.526h.327a.876.876 0 00.875-.875v-1.438a.876.876 0 00-.875-.875zm-.292 2.022h-.47a.583.583 0 00-.568.446c-.09.371-.235.723-.433 1.047a.583.583 0 00.086.716l.333.333-.605.604-.333-.332a.583.583 0 00-.716-.086 3.663 3.663 0 01-1.047.433.583.583 0 00-.445.567v.471H6.56V17.3a.583.583 0 00-.446-.567 3.663 3.663 0 01-1.046-.433.583.583 0 00-.716.086l-.333.332-.605-.604.333-.333a.583.583 0 00.086-.716 3.663 3.663 0 01-.433-1.047.583.583 0 00-.567-.446h-.471v-.855h.47c.27 0 .504-.184.568-.446.09-.37.235-.723.433-1.046a.583.583 0 00-.086-.716l-.333-.333.605-.605.333.333c.19.19.486.226.716.085a3.664 3.664 0 011.046-.433.583.583 0 00.446-.566v-.472h.856v.472c0 .269.184.503.445.566.371.09.723.236 1.047.433.23.14.526.105.716-.085l.333-.333.605.605-.333.333a.584.584 0 00-.086.716c.198.323.343.675.433 1.046a.583.583 0 00.567.446h.471v.855z" fill="url(#paint4_linear)"/><path d="M6.988 10.307a2.841 2.841 0 00-2.838 2.838 2.841 2.841 0 002.838 2.838 2.841 2.841 0 002.838-2.838 2.841 2.841 0 00-2.838-2.838zm0 4.51c-.922 0-1.672-.75-1.672-1.672 0-.922.75-1.672 1.672-1.672.922 0 1.672.75 1.672 1.672 0 .921-.75 1.671-1.672 1.671z" fill="url(#paint5_linear)"/><path d="M32.278 30.834h-.327a4.8 4.8 0 00-.217-.525l.23-.231a.876.876 0 000-1.238l-1.016-1.017a.87.87 0 00-.619-.256.869.869 0 00-.619.256l-.23.231a4.811 4.811 0 00-.526-.217v-.327a.876.876 0 00-.875-.875h-1.438a.876.876 0 00-.875.875v.327a4.8 4.8 0 00-.526.217l-.23-.23a.869.869 0 00-.619-.257.87.87 0 00-.619.256l-1.017 1.018a.876.876 0 000 1.237l.231.23a4.81 4.81 0 00-.217.526h-.327a.876.876 0 00-.875.875v1.438c0 .483.393.875.875.875h.327c.062.18.134.355.217.526l-.23.23a.876.876 0 000 1.238l1.016 1.017a.87.87 0 00.619.256.869.869 0 00.619-.256l.23-.23c.171.082.347.154.526.217v.326c0 .483.393.875.875.875h1.438a.876.876 0 00.875-.875v-.326c.18-.063.355-.135.526-.218l.23.23a.87.87 0 00.619.257c.234 0 .453-.09.619-.256l1.017-1.017a.876.876 0 000-1.237l-.231-.231c.082-.17.155-.346.217-.526h.327a.876.876 0 00.875-.875V31.71a.876.876 0 00-.875-.875zm-.291 2.022h-.472a.583.583 0 00-.567.446 3.65 3.65 0 01-.433 1.046.583.583 0 00.086.716l.333.333-.605.605-.333-.333a.584.584 0 00-.716-.085 3.662 3.662 0 01-1.046.432.583.583 0 00-.446.567v.471h-.855v-.47a.583.583 0 00-.446-.568 3.664 3.664 0 01-1.047-.432.583.583 0 00-.716.085l-.333.333-.604-.605.332-.333a.584.584 0 00.086-.716 3.66 3.66 0 01-.433-1.046.583.583 0 00-.567-.446h-.471V32h.471c.27 0 .503-.185.567-.446a3.66 3.66 0 01.433-1.047.583.583 0 00-.086-.716l-.332-.333.604-.604.333.332c.19.19.486.226.716.086a3.664 3.664 0 011.047-.433.583.583 0 00.446-.567v-.471h.855v.471c0 .27.184.503.446.567.37.09.723.235 1.046.433.23.14.526.105.716-.086l.333-.332.605.604-.333.333a.583.583 0 00-.085.716c.197.324.343.676.433 1.047a.583.583 0 00.566.446h.471v.855z" fill="url(#paint6_linear)"/><path d="M27.36 29.59a2.841 2.841 0 00-2.838 2.838 2.841 2.841 0 002.838 2.838 2.841 2.841 0 002.838-2.838 2.841 2.841 0 00-2.838-2.838zm0 4.51c-.922 0-1.672-.75-1.672-1.672a1.673 1.673 0 013.344 0c0 .922-.75 1.672-1.672 1.672z" fill="url(#paint7_linear)"/><defs><linearGradient id="paint0_linear" x1="28.55" y1="10.849" x2="28.55" y2="12.137" gradientUnits="userSpaceOnUse"><stop stop-color="#47C0BB"/><stop offset="1" stop-color="#0063AE"/></linearGradient><linearGradient id="paint1_linear" x1="24.852" y1="16.983" x2="24.852" y2="16.987" gradientUnits="userSpaceOnUse"><stop stop-color="#47C0BB"/><stop offset="1" stop-color="#0063AE"/></linearGradient><linearGradient id="paint2_linear" x1="23.058" y1="15.19" x2="23.058" y2="15.194" gradientUnits="userSpaceOnUse"><stop stop-color="#47C0BB"/><stop offset="1" stop-color="#0063AE"/></linearGradient><linearGradient id="paint3_linear" x1="19.922" y1="0" x2="19.922" y2="40" gradientUnits="userSpaceOnUse"><stop stop-color="#47C0BB"/><stop offset="1" stop-color="#0063AE"/></linearGradient><linearGradient id="paint4_linear" x1="6.988" y1="7.352" x2="6.988" y2="18.938" gradientUnits="userSpaceOnUse"><stop stop-color="#47C0BB"/><stop offset="1" stop-color="#0063AE"/></linearGradient><linearGradient id="paint5_linear" x1="6.988" y1="10.307" x2="6.988" y2="15.983" gradientUnits="userSpaceOnUse"><stop stop-color="#47C0BB"/><stop offset="1" stop-color="#0063AE"/></linearGradient><linearGradient id="paint6_linear" x1="27.36" y1="26.635" x2="27.36" y2="38.221" gradientUnits="userSpaceOnUse"><stop stop-color="#47C0BB"/><stop offset="1" stop-color="#0063AE"/></linearGradient><linearGradient id="paint7_linear" x1="27.36" y1="29.59" x2="27.36" y2="35.266" gradientUnits="userSpaceOnUse"><stop stop-color="#47C0BB"/><stop offset="1" stop-color="#0063AE"/></linearGradient></defs></svg>