<svg width="40" height="40" fill="none" xmlns="http://www.w3.org/2000/svg"><path d="M38.95 30.856l-8.096-5.399a2.363 2.363 0 00-3.164.514l-2.358 3.032c-.303.4-.854.516-1.293.272l-.448-.247c-1.488-.81-3.338-1.82-7.066-5.55-3.728-3.729-4.74-5.58-5.55-7.065l-.246-.448a1.01 1.01 0 01.267-1.297l3.03-2.358a2.364 2.364 0 00.515-3.164L9.14 1.05A2.35 2.35 0 005.973.336L2.587 2.37A4.776 4.776 0 00.41 5.196C-.81 9.638.107 17.304 11.4 28.6c8.984 8.982 15.671 11.398 20.268 11.398a11.808 11.808 0 003.133-.41 4.772 4.772 0 002.826-2.177l2.036-3.383a2.351 2.351 0 00-.713-3.17zm-.436 2.487l-2.03 3.385a3.445 3.445 0 01-2.034 1.576c-4.1 1.126-11.265.193-22.106-10.648C1.502 16.814.569 9.65 1.695 5.549a3.45 3.45 0 011.578-2.036l3.386-2.03a1.02 1.02 0 011.375.308l2.933 4.404 2.461 3.692a1.026 1.026 0 01-.222 1.373l-3.031 2.358a2.333 2.333 0 00-.618 2.994l.24.437c.852 1.563 1.912 3.506 5.778 7.372 3.867 3.866 5.81 4.926 7.372 5.777l.438.242a2.333 2.333 0 002.994-.618l2.358-3.031c.33-.42.927-.517 1.373-.223l8.095 5.4c.455.301.591.907.31 1.375z" fill="url(#paint0_linear)"/><path d="M22.665 6.669C28.921 6.675 33.99 11.745 33.997 18a.667.667 0 101.333 0c-.008-6.991-5.673-12.657-12.665-12.665a.666.666 0 100 1.334z" fill="url(#paint1_linear)"/><path d="M22.665 10.668A7.34 7.34 0 0129.998 18a.667.667 0 001.333 0 8.675 8.675 0 00-8.666-8.666.667.667 0 000 1.334z" fill="url(#paint2_linear)"/><path d="M22.665 14.668A3.337 3.337 0 0125.998 18a.667.667 0 001.333 0 4.671 4.671 0 00-4.666-4.665.666.666 0 100 1.333z" fill="url(#paint3_linear)"/><defs><linearGradient id="paint0_linear" x1="20" y1="0" x2="20" y2="39.997" gradientUnits="userSpaceOnUse"><stop stop-color="#47C0BB"/><stop offset="1" stop-color="#0063AE"/></linearGradient><linearGradient id="paint1_linear" x1="28.665" y1="5.335" x2="28.665" y2="18.667" gradientUnits="userSpaceOnUse"><stop stop-color="#47C0BB"/><stop offset="1" stop-color="#0063AE"/></linearGradient><linearGradient id="paint2_linear" x1="26.665" y1="9.334" x2="26.665" y2="18.666" gradientUnits="userSpaceOnUse"><stop stop-color="#47C0BB"/><stop offset="1" stop-color="#0063AE"/></linearGradient><linearGradient id="paint3_linear" x1="24.665" y1="13.335" x2="24.665" y2="18.667" gradientUnits="userSpaceOnUse"><stop stop-color="#47C0BB"/><stop offset="1" stop-color="#0063AE"/></linearGradient></defs></svg>