<svg width="60" height="55" fill="none" xmlns="http://www.w3.org/2000/svg"><path d="M16.394 52.482h34.894c.285 0 .515-.23.515-.514v-15.46c0-.102-.03-.2-.087-.285-.115-.172-2.882-4.224-8.64-4.224-5.061 0-7.894 3.294-8.588 4.218H22.91c-2.26 0-4.1 1.839-4.1 4.1 0 1.222.537 2.32 1.387 3.072h-1.362L5.513 35.058a3.603 3.603 0 00-4.12 5.9l14.685 11.415c.09.07.2.109.316.109zm34.38-1.029H16.57L2.022 40.145a2.574 2.574 0 012.945-4.215l13.448 8.41a.511.511 0 00.272.077h4.223a.515.515 0 000-1.028 3.075 3.075 0 01-3.072-3.072 3.076 3.076 0 013.072-3.072h11.841a.516.516 0 00.43-.23c.026-.04 2.703-3.987 7.894-3.987 4.662 0 7.21 3.01 7.698 3.649v14.776h.001z" fill="url(#paint0_linear)"/><path d="M34.278 43.388H22.91v1.028h11.368v-1.028z" fill="#1F8BB4"/><path d="M51.288 54.79h8.198c.284 0 .514-.23.514-.514V32.513a.514.514 0 00-.514-.515h-8.198a.514.514 0 00-.514.515v21.763c0 .285.23.515.514.515zm7.684-1.028h-7.17V33.027h7.17v20.735z" fill="url(#paint1_linear)"/><path d="M19.599 0h13.375C34.088 0 35 .911 35 2.026v25.947A2.033 2.033 0 0132.974 30H19.599a2.031 2.031 0 01-2.026-2.026V2.026C17.573.911 18.485 0 19.599 0zm8.827 1.46h-4.28a.245.245 0 000 .492h4.28a.245.245 0 100-.491zm-2.14 27.527a1.013 1.013 0 100-2.026 1.013 1.013 0 000 2.026zm-7.303-2.737H33.59V3.213H18.983V26.25z" fill="url(#paint2_linear)"/><defs><linearGradient id="paint0_linear" x1="25.901" y1="31.999" x2="25.901" y2="52.482" gradientUnits="userSpaceOnUse"><stop stop-color="#47C0BB"/><stop offset="1" stop-color="#0063AE"/></linearGradient><linearGradient id="paint1_linear" x1="55.387" y1="31.998" x2="55.387" y2="54.791" gradientUnits="userSpaceOnUse"><stop stop-color="#47C0BB"/><stop offset="1" stop-color="#0063AE"/></linearGradient><linearGradient id="paint2_linear" x1="26.286" y1="0" x2="26.286" y2="30" gradientUnits="userSpaceOnUse"><stop stop-color="#47C0BB"/><stop offset="1" stop-color="#0063AE"/></linearGradient></defs></svg>