<svg width="21" height="21" fill="none" xmlns="http://www.w3.org/2000/svg"><path d="M16.878 21c-.874 0-1.929-.219-3.09-.657-2.544-.96-5.312-2.855-7.794-5.337C3.511 12.523 1.616 9.754.656 7.21-.217 4.897-.22 2.998.65 2.13c.125-.125.252-.26.383-.398.793-.834 1.69-1.773 2.878-1.73.819.033 1.612.542 2.424 1.553 2.4 2.985 1.318 4.048.066 5.282l-.221.219c-.205.204-.592 1.153 3.009 4.754 1.175 1.175 2.177 2.035 2.978 2.556.505.328 1.407.824 1.777.454l.222-.225c1.232-1.25 2.296-2.328 5.279.07 1.01.812 1.518 1.605 1.552 2.425.049 1.187-.897 2.085-1.732 2.878-.137.131-.272.259-.397.383-.431.432-1.121.649-1.99.649zM3.828.706c-.845 0-1.607.803-2.282 1.513-.135.142-.267.28-.396.41-.648.647-.582 2.347.167 4.333.925 2.452 2.764 5.132 5.177 7.545 2.413 2.412 5.091 4.251 7.545 5.176 1.985.75 3.685.813 4.332.167.129-.13.267-.26.41-.396.725-.689 1.548-1.47 1.512-2.337-.024-.595-.458-1.236-1.289-1.903-2.485-2-3.18-1.294-4.333-.125l-.226.229c-.551.551-1.446.429-2.661-.36-.843-.549-1.884-1.44-3.093-2.65C5.702 9.32 4.747 7.49 5.682 6.554l.225-.222c1.172-1.153 1.88-1.849-.12-4.336-.67-.83-1.31-1.264-1.905-1.289h-.055z" fill="#fff"/></svg>