<svg width="101" height="87" fill="none" xmlns="http://www.w3.org/2000/svg"><path d="M93.484.449H6.098C2.789.449.135 3.077.18 6.307l.836 58.91c.046 3.23 2.775 5.858 6.083 5.858h29.944l.06 4.262c.056 3.908-3.155 7.087-7.157 7.087h-6.599c-1.265 0-2.277 1.001-2.26 2.237.018 1.236 1.058 2.237 2.323 2.237h55.213c1.266 0 2.277-1.001 2.26-2.237-.018-1.236-1.058-2.237-2.323-2.237h-6.6c-4.001 0-7.303-3.18-7.358-7.087l-.06-4.262h29.943c3.309 0 5.963-2.628 5.917-5.858l-.836-58.91C99.52 3.077 96.793.449 93.484.449zM39.292 82.424a11.185 11.185 0 002.395-7.086l-.06-4.263H59.96l.06 4.263c.039 2.669 1.008 5.128 2.597 7.086H39.292zm56.299-33.439H5.369L4.763 6.307c-.01-.763.616-1.384 1.398-1.384h87.386c.782 0 1.427.62 1.438 1.384l.606 42.678z" fill="url(#paint0_linear)"/><path d="M48.997 62.731a2.454 2.454 0 002.457-2.452c0-1.354-1.1-2.451-2.457-2.451a2.454 2.454 0 00-2.457 2.451c0 1.354 1.1 2.452 2.457 2.452z" fill="#C4C4C4"/><defs><linearGradient id="paint0_linear" x1="49.791" y1=".449" x2="49.791" y2="86.898" gradientUnits="userSpaceOnUse"><stop stop-color="#47C0BB"/><stop offset="1" stop-color="#0063AE"/></linearGradient></defs></svg>