<svg width="91" height="90" fill="none" xmlns="http://www.w3.org/2000/svg"><path d="M90.088 81.6l-.002-.051a2.182 2.182 0 00-.023-.2l-.004-.02a2.046 2.046 0 00-.038-.175l-.013-.045a1.992 1.992 0 00-.05-.152c-.004-.008-.006-.017-.009-.026L82.891 62.84V3.32c0-1.83-1.146-3.32-2.555-3.32H9.756C8.345 0 7.2 1.49 7.2 3.32v59.52L.143 80.93l-.009.027c-.018.05-.035.1-.05.152l-.013.045a2.163 2.163 0 00-.038.176l-.004.019c-.01.065-.018.132-.023.2l-.002.05c-.002.036-.004.071-.004.108v4.35C0 88.231 1.361 90 3.034 90h84.024c1.673 0 3.034-1.769 3.034-3.943v-4.35c0-.037-.002-.072-.004-.107zM13.535 8.004h63.022v48.658H13.535V8.004zm41.356 71.988H35.2l1.23-5.799h17.23l1.23 5.799zm32.562 6.065c0 .283-.178.513-.395.513H3.034c-.217 0-.395-.23-.395-.513V83.42h84.814v2.636z" fill="url(#paint0_linear)"/><defs><linearGradient id="paint0_linear" x1="45.046" y1="0" x2="45.046" y2="90" gradientUnits="userSpaceOnUse"><stop stop-color="#47C0BB"/><stop offset="1" stop-color="#0063AE"/></linearGradient></defs></svg>