<svg width="53" height="90" fill="none" xmlns="http://www.w3.org/2000/svg"><path d="M46.203 0H6.08C2.736 0 0 2.733 0 6.079v77.84C0 87.264 2.736 90 6.079 90h40.124c3.343 0 6.08-2.73 6.08-6.079V6.08c0-3.346-2.737-6.079-6.08-6.079zm-26.48 4.382h12.836a.736.736 0 010 1.473H19.723a.736.736 0 010-1.473zM26.14 86.96a3.04 3.04 0 01-3.04-3.042 3.038 3.038 0 013.04-3.04c1.68 0 3.04 1.358 3.04 3.04a3.04 3.04 0 01-3.04 3.042zm21.911-8.211H4.23V9.64h43.822v69.11z" fill="url(#paint0_linear)"/><defs><linearGradient id="paint0_linear" x1="26.141" y1="0" x2="26.141" y2="90" gradientUnits="userSpaceOnUse"><stop stop-color="#47C0BB"/><stop offset="1" stop-color="#0063AE"/></linearGradient></defs></svg>