<svg width="39" height="90" fill="none" xmlns="http://www.w3.org/2000/svg"><path d="M30.639 0H7.659C3.427 0 0 3.103 0 6.923v76.155C0 86.904 3.426 90 7.66 90h22.979c4.233 0 7.659-3.096 7.659-6.922V6.923c0-3.82-3.426-6.923-7.66-6.923zm-19.15 69.231c-2.116 0-3.83-1.548-3.83-3.463 0-1.912 1.714-3.46 3.83-3.46 2.117 0 3.83 1.548 3.83 3.46 0 1.915-1.713 3.463-3.83 3.463zm19.15-41.539H7.659V20.77h22.98v6.922zm0-13.846H7.659V6.923h22.98v6.923z" fill="url(#paint0_linear)"/><defs><linearGradient id="paint0_linear" x1="19.149" y1="0" x2="19.149" y2="90" gradientUnits="userSpaceOnUse"><stop stop-color="#47C0BB"/><stop offset="1" stop-color="#0063AE"/></linearGradient></defs></svg>