<svg width="38" height="35" fill="none" xmlns="http://www.w3.org/2000/svg"><path d="M12.873 0c-.424.042-.784.454-.782.897v3.59H1.727c-.503 0-.903.222-1.2.533-.3.31-.527.74-.527 1.262v26.46c0 .602.16 1.217.58 1.655.42.439 1.003.603 1.58.603h33.68c.576 0 1.16-.167 1.58-.603.419-.436.58-1.042.58-1.64V15.564a.98.98 0 000-.042v-9.24c0-.524-.23-.954-.527-1.263-.297-.31-.697-.533-1.2-.533H25.908V.897c0-.47-.412-.897-.864-.897H12.873zm.945 1.795h10.364v2.692H13.818V1.795zM1.728 6.282h34.544v9.143c-.1.628-.628 1.253-1.524 1.738-.91.493-2.135.794-3.226.786h-9.5v-1.795a1.88 1.88 0 00-.431-1.192c-.256-.319-.622-.603-1.147-.603h-2.888c-.525 0-.891.284-1.147.603a1.88 1.88 0 00-.432 1.192v1.795h-9.5c-1.09.008-2.315-.293-3.225-.786-.896-.485-1.425-1.11-1.525-1.738V6.282zm15.976 9.872h2.591v5.384h-2.59v-5.384zM1.727 18.299c.233.171.476.326.729.463 1.208.654 2.64.992 4.021.982h9.5v1.794c0 .474.176.873.432 1.192.256.32.622.603 1.147.603h2.888c.525 0 .89-.284 1.147-.603a1.88 1.88 0 00.431-1.192v-1.794h9.5c1.381.01 2.814-.328 4.022-.982.253-.137.496-.292.728-.463v14.457c0 .3-.055.352-.067.365-.012.013-.077.084-.364.084H2.158c-.288 0-.352-.071-.364-.084-.013-.013-.068-.072-.068-.379V18.3z" fill="#000"/></svg>